<?xml version="1.0" encoding="UTF-8" standalone="no"?>
<!-- Add XML Data -->

<svg
   width="240.20932"
   height="114.9"
   viewBox="0 0 240.20932 114.9"
   fill="none"
   version="1.1"
   id="svg93"
   xmlns="http://www.w3.org/2000/svg"
   xmlns:svg="http://www.w3.org/2000/svg">
  <defs
     id="defs97" />
  <g
     id="layer2"
     transform="translate(-691.39455,-403)">
    <g
       id="mouth_big"
       display="inline"
       transform="translate(339,177)">
      <g
         id="mouth_bg"
         fill="#2b0000">
        <path
           id="path14971-1"
           d="m 365,226 c -7.24,0.149 -13.5,6.39 -12.5,13.9 7.55,56.9 58.4,101 120,101 61.4,0 112,-43.8 120,-101 1.13,-8.53 -7.15,-15.5 -15.6,-13.5 -30.5,6.98 -66.2,11 -104,11 -38.1,0 -73.7,-4.03 -104,-11 -1.06,-0.242 -2.11,-0.345 -3.14,-0.324 z m 1.68,6.74 c 31.1,7.1 67.2,11.2 106,11.2 38.5,0 74.6,-4.07 106,-11.2 4.3,-0.982 8.14,2.36 7.62,6.24 -7.1,53.5 -55,95 -113,95 -58.3,0 -106,-41.5 -113,-95 -0.515,-3.88 3.32,-7.23 7.62,-6.24 z" />
        <path
           id="path14969-2"
           d="m 368,230 c -6.38,-1.46 -12.4,3.68 -11.6,9.89 7.33,55.2 56.7,97.8 117,97.8 59.9,0 109,-42.7 117,-97.8 0.824,-6.2 -5.24,-11.3 -11.6,-9.89 -30.8,7.04 -66.7,11.1 -105,11.1 -38.3,0 -74.1,-4.05 -105,-11.1 z" />
      </g>
      <g
         id="mouth_outline"
         opacity="0.978">
        <g
           id="g12179">
          <path
             id="path3708-6"
             d="m 581,228 c -4.21,1.29 -9.86,1.52 -15.5,3.46 0.512,4.2 1.11,10.2 1.88,17.6 5.12,-1.61 9.17,-2.04 15.1,-3.65 z m -220,-0.658 -1.52,19.2 c 4.76,1.84 13.2,3.19 17.4,4.73 l -0.547,-21.4 c -7.16,-1.02 -4.32,-0.723 -15.3,-2.56 z m 202,4.34 c -6,1.33 -15.1,1.99 -23.1,3.99 0.73,4.32 0.445,11.3 1.54,18.9 7.3,-1.66 15,-3.32 23.4,-4.98 z m -183,0.191 -0.228,20.7 c 6.2,1.99 12,3.65 17.5,5.31 l 0.583,-22.4 c -6.97,-1.96 -11.8,-2.2 -17.9,-3.61 z m 155,4.79 c -6.57,1.33 -14.6,1.66 -22.2,2.99 0.365,4.65 0.775,12.6 1.5,20.9 7.3,-1.66 14.6,-3.32 22.3,-4.98 z m -133,-1.12 c 0.365,5.98 -0.385,14.4 -0.02,23.3 7.66,1.99 15.3,3.65 22.3,4.65 l 0.396,-25.2 c -8.39,-1.33 -15.7,-1.49 -22.6,-2.82 z m 107,3.45 c -7.3,1.33 -16.7,0.967 -25.4,1.63 0,4.98 0.553,15.9 0.918,24.9 8.39,-0.997 16.4,-2.32 24.8,-4.32 -0.687,-7.47 -1.16,-14.8 -0.279,-22.2 z m -80.5,-0.346 c 0.365,6.31 -0.197,16.3 0.167,25.9 7.66,1.33 15,1.99 21.9,2.32 l -0.167,-26.2 c -8.03,-0.332 -15.3,-0.996 -21.9,-1.99 z m 50.7,1.18 c -3.28,0.332 -6.57,0.332 -10.2,0.664 -5.11,0.332 -9.85,0.332 -14.2,0.332 0,5.65 0.177,16.7 0.542,26 8.39,0.332 16.4,0 24.4,-0.996 l -0.177,-26 z m 90.3,31.3 c -8.03,4.98 -16.1,9.63 -24.8,13.3 1.09,7.97 1.82,15.6 2.55,22.6 10.2,-6.31 19.3,-14.6 26.6,-24.2 z m -189,11.6 -2.56,11 c 6.2,5.65 13.1,11 20.8,15.3 l -0.73,-20.9 c -5.47,-1.66 -11.3,-3.32 -17.2,-5.31 z m 159,3.32 c -7.3,2.99 -15.3,5.31 -23.4,7.31 0.73,9.63 1.46,19.6 1.82,26.9 8.76,-2.66 16.8,-6.31 24.4,-10.6 z m -137,2.99 c 0.365,7.97 0.729,15.9 0.729,22.6 6.93,3.65 14,8.7 22.1,11 l -0.907,-28.6 c -7.3,-1.33 -14.6,-2.99 -21.9,-4.65 z m 109,5.31 c -8.39,1.66 -17.1,2.99 -26.3,3.32 0.365,10.6 0.177,24.7 0.542,32.6 9.49,-0.665 18.6,-4.01 27.7,-6.67 l -1.64,-29.6 z m -81.7,0.332 c 0.365,9.96 0.543,22 0.543,29.3 6.93,1.99 14.2,5.01 21.2,6 L 451,297.379 c -6.93,-0.664 -14.2,-1.33 -21.5,-2.66 z m 26.3,2.99 c 0.364,10.6 0.177,24.7 0.542,32.6 8.03,0.664 16.4,0.996 24.4,0.664 l -0.542,-33 c -7.66,0.332 -16.1,0.333 -24.4,-0.332 z"
             fill="#ffffff" />
        </g>
        <path
           id="path14971"
           d="m 365,226 c -7.24,0.149 -13.5,6.39 -12.5,13.9 7.55,56.9 58.4,101 120,101 61.4,0 112,-43.8 120,-101 1.13,-8.53 -7.15,-15.5 -15.6,-13.5 -30.5,6.98 -66.2,11 -104,11 -38.1,0 -73.7,-4.03 -104,-11 -1.06,-0.242 -2.11,-0.345 -3.14,-0.324 z m 1.68,6.74 c 31.1,7.1 67.2,11.2 106,11.2 38.5,0 74.6,-4.07 106,-11.2 4.3,-0.982 8.14,2.36 7.62,6.24 -7.1,53.5 -55,95 -113,95 -58.3,0 -106,-41.5 -113,-95 -0.515,-3.88 3.32,-7.23 7.62,-6.24 z"
           fill="#000000" />
      </g>
      <g
         id="mouth_tongue">
        <path
           id="path3706"
           d="m 511,278 c -14,0 -31.2,4.24 -49.2,15.4 0,0 -19.6,-16.4 -41.9,-11.5 -13,2.72 -17,4.24 -19.3,8.78 62.1,15.7 99.4,12.1 139,-2.72 -4.65,-6.66 -11,-9.99 -28.2,-9.99 z"
           fill="#d40000" />
      </g>
    </g>
  </g>
</svg>
