<?xml version="1.0" encoding="UTF-8" standalone="no"?>
<!-- Add XML Data -->

<svg
   width="240.20932"
   height="91.699997"
   viewBox="0 0 240.20932 91.699997"
   fill="none"
   version="1.1"
   id="svg93"
   xmlns="http://www.w3.org/2000/svg"
   xmlns:svg="http://www.w3.org/2000/svg">
  <defs
     id="defs97" />
  <g
     id="layer6"
     transform="translate(-692.89455,-703)">
    <g
       id="mouth_half_closed"
       display="inline"
       transform="translate(340.5,477)">
      <g
         id="g5590">
        <path
           id="path5586"
           d="m 365,226.024 c -7.24,0.115 -13.5,4.946 -12.5,10.759 7.55,44.04 58.4,78.174 120,78.174 61.4,0 112,-33.902 120,-78.174 1.13,-6.603 -7.15,-11.997 -15.6,-10.449 -30.5,5.402 -66.2,8.514 -104,8.514 -38.1,0 -73.7,-3.12 -104,-8.514 -1.06,-0.188 -2.11,-0.267 -3.14,-0.251 z m 1.68,5.217 c 31.1,5.495 67.2,8.669 106,8.669 38.5,0 74.6,-3.151 106,-8.669 4.3,-0.76 8.14,1.826 7.62,4.83 -7.1,41.409 -55,73.53 -113,73.53 -58.3,0 -106,-32.121 -113,-73.53 -0.515,-3.004 3.32,-5.597 7.62,-4.83 z"
           fill="#2b0000" />
        <path
           id="path5588"
           d="m 368,229.12 c -6.38,-1.13 -12.4,2.848 -11.6,7.655 7.33,42.725 56.7,75.697 117,75.697 59.9,0 109,-33.05 117,-75.697 0.824,-4.799 -5.24,-8.746 -11.6,-7.655 -30.8,5.449 -66.7,8.591 -105,8.591 -38.3,0 -74.1,-3.134 -105,-8.591 z"
           fill="#2b0000" />
      </g>
      <g
         id="g5598"
         opacity="0.978">
        <g
           id="g5594">
          <path
             id="path5592"
             d="m 586,230 c -4.21,1.29 -15.6,0.772 -21.2,2.71 0.512,4.2 1.39,9.59 2.16,17 5.12,-1.61 14.5,-3.25 20.4,-4.87 z m -227,-0.189 -1.61,16 c 4.76,1.84 14.9,4.88 19.1,6.41 l 0.484,-20.8 c -7.16,-1.02 -6.94,0.214 -18,-1.62 z m 204,2.93 c -6,1.33 -17.1,2.56 -25.1,4.55 0.73,4.32 0.632,10.9 1.73,18.5 7.3,-1.66 17.1,-3.79 25.5,-5.45 z m -185,0.097 -0.79,20.5 c 6.2,1.99 15.9,3.84 21.4,5.5 l 0.208,-21.3 c -6.97,-1.96 -14.7,-3.33 -20.8,-4.74 z m 158,5.17 c -6.57,1.33 -17.4,0.913 -25,2.24 0.365,4.65 0.775,13.2 1.5,21.5 7.3,-1.66 17.7,-3.98 25.4,-5.64 z m -136,-1.22 c 0.365,5.98 -0.01,13.3 0.355,22.3 7.66,1.99 18.8,5.15 25.7,6.15 l 0.302,-25.5 c -8.39,-1.33 -19.4,-1.68 -26.4,-3.01 z m 111,3.08 c -7.3,1.33 -20.1,-0.99 -28.8,-0.326 0,4.98 0.553,18.1 0.918,27 8.39,-0.997 20,-2.7 28.4,-4.69 -0.687,-7.47 -1.35,-14.6 -0.466,-22 z m -82.9,-0.346 c 0.365,6.31 -0.478,16.6 -0.114,26.3 7.66,1.33 18.2,1.9 25.2,2.23 l -0.051,-27.6 c -8.03,-0.332 -18.4,0.133 -25,-0.864 z m 41.1,0.483 c -5.11,0.332 -10.4,0.144 -14.8,0.144 0,5.65 0.083,18.1 0.448,27.4 8.39,0.332 18.8,0.188 26.8,-0.808 l -0.872,-28.1 c -3.77,-0.935 -8.38,1.1 -11.6,1.33 z"
             fill="#ffffff" />
        </g>
        <path
           id="path5596"
           d="m 365,226 c -7.24,0.119 -13.5,5.11 -12.5,11.1 7.55,45.5 58.4,80.6 120,80.6 61.4,0 112,-35.1 120,-80.6 1.13,-6.82 -7.15,-12.4 -15.6,-10.8 -30.5,5.59 -66.2,8.81 -104,8.81 -38.1,0 -73.7,-3.22 -104,-8.81 -1.06,-0.194 -2.11,-0.276 -3.14,-0.259 z m 1.68,5.39 c 31.1,5.69 67.2,8.94 106,8.94 38.5,0 74.6,-3.26 106,-8.94 4.3,-0.786 8.14,1.89 7.62,5 -7.1,42.8 -55,76 -113,76 -58.3,0 -106,-33.2 -113,-76 -0.515,-3.1 3.32,-5.78 7.62,-5 z"
           fill="#000000" />
      </g>
    </g>
  </g>
</svg>
