<?xml version="1.0" encoding="UTF-8" standalone="no"?>
<!-- Add XML Data -->

<svg
   width="122.12441"
   height="56.996822"
   viewBox="0 0 122.12441 56.996822"
   fill="none"
   version="1.1"
   id="svg93"
   xmlns="http://www.w3.org/2000/svg"
   xmlns:svg="http://www.w3.org/2000/svg">
  <defs
     id="defs97" />
  <g
     id="layer1"
     transform="translate(-756.30955,-558.50318)">
    <g
       id="mouth_frown_slight"
       display="inline"
       transform="translate(349.5,340.5)">
      <path
         id="path8419"
         d="m 522,275 c -0.957,-0.364 -1.91,-0.729 -2.87,-1.46 -13.7,-13.5 -30.6,-23 -49.4,-27.7 -18.8,-4.74 -38,-4.74 -55.2,0.729 -0.957,0.364 -2.23,0.364 -3.19,0 -2.23,-0.729 -3.83,-2.92 -4.47,-5.47 -0.319,-2.55 0.638,-5.1 2.55,-6.56 18.8,-14.9 42.4,-20 65.1,-14.2 22.7,5.8 42.1,21.9 53.6,44.5 1.28,2.19 0.957,5.1 -0.319,6.92 -1.28,2.19 -3.51,3.28 -5.74,2.55 z"
         fill="#242424"
         stroke-width="3.41" />
    </g>
  </g>
</svg>
