<?xml version="1.0" encoding="UTF-8" standalone="no"?>
<!-- Add XML Data -->

<svg
   width="239.86856"
   height="114.56366"
   viewBox="0 0 239.86856 114.56366"
   fill="none"
   version="1.1"
   id="svg93"
   xmlns="http://www.w3.org/2000/svg"
   xmlns:svg="http://www.w3.org/2000/svg">
  <defs
     id="defs97" />
  <g
     id="layer5"
     transform="translate(-663.05877,-677.71834)">
    <g
       id="mouth_smaller"
       style="display:inline"
       transform="translate(310.5,451.5)">
      <g
         id="mouth_bg_smaller"
         fill="#2b0000">
        <path
           id="path2199"
           d="m 365.13,226.22 c -7.237,0.149 -13.458,6.391 -12.467,13.852 7.553,56.867 58.397,100.71 119.83,100.71 61.437,0 112.28,-43.839 119.83,-100.71 1.133,-8.527 -7.153,-15.46 -15.611,-13.527 -30.542,6.979 -66.163,11.008 -104.22,11.008 -38.06,0 -73.68,-4.028 -104.22,-11.008 -1.057,-0.242 -2.111,-0.345 -3.144,-0.324 z m 1.68,6.74 c 31.089,7.105 67.164,11.174 105.69,11.174 38.524,0 74.598,-4.069 105.69,-11.174 4.299,-0.982 8.136,2.365 7.621,6.244 -7.104,53.481 -54.999,94.99 -113.31,94.99 -58.31,0 -106.21,-41.509 -113.31,-94.99 -0.515,-3.879 3.321,-7.226 7.621,-6.244 z" />
        <path
           id="path2201"
           d="m 367.54,229.76 c -6.379,-1.458 -12.44,3.683 -11.616,9.886 7.328,55.174 56.698,97.847 116.57,97.847 59.873,0 109.24,-42.673 116.57,-97.847 0.824,-6.203 -5.237,-11.343 -11.616,-9.886 -30.816,7.042 -66.663,11.09 -104.95,11.09 -38.292,0 -74.14,-4.048 -104.96,-11.09 z" />
      </g>
      <g
         id="mouth_teeth_smaller"
         opacity="0.97792">
        <g
           id="g2207">
          <path
             id="path2205"
             d="m 585.63,229.52 c -4.207,1.292 -15.581,0.772 -21.214,2.709 0.512,4.196 1.3882,9.5875 2.1562,17.012 5.121,-1.614 14.517,-3.2538 20.405,-4.8678 z m -226.52,-0.18925 -1.6108,16.042 c 4.765,1.843 14.876,4.8785 19.08,6.4135 l 0.48425,-20.834 c -7.164,-1.025 -6.943,0.2145 -17.954,-1.6225 z m 204.12,2.9338 c -5.995,1.328 -17.122,2.5565 -25.148,4.5485 0.73,4.318 0.6325,10.888 1.7265,18.527 7.298,-1.661 17.116,-3.7898 25.508,-5.4508 z m -184.66,0.0973 -0.7905,20.516 c 6.203,1.993 15.885,3.8415 21.358,5.5015 l 0.208,-21.282 c -6.968,-1.955 -14.659,-3.33 -20.775,-4.736 z m 158.04,5.167 c -6.568,1.328 -17.374,0.913 -25.036,2.241 0.365,4.65 0.775,13.152 1.505,21.454 7.298,-1.661 17.689,-3.9772 25.352,-5.6382 z m -136.19,-1.2168 c 0.365,5.979 -0.01,13.347 0.355,22.314 7.663,1.993 18.794,5.154 25.726,6.15 l 0.30225,-25.458 c -8.392,-1.329 -19.45,-1.6765 -26.383,-3.0055 z m 110.63,3.078 c -7.297,1.328 -20.068,1.5295 -28.825,2.1935 0,4.982 0.553,15.562 0.918,24.529 8.392,-0.997 19.982,-2.7 28.374,-4.693 -0.687,-7.474 -1.3525,-14.602 -0.4665,-22.03 z m -82.87,-0.346 c 0.365,6.31 -0.47825,16.628 -0.11425,26.26 7.663,1.328 18.241,1.8982 25.174,2.2302 l -0.44825,-25.372 c -8.027,-0.332 -18.044,-2.121 -24.612,-3.118 z m 51.272,1.2778 c -3.284,0.332 -6.568,0.332 -10.217,0.664 -5.108,0.332 -10.414,0.1445 -14.792,0.1445 0,5.647 0.0833,16.636 0.44825,25.935 8.392,0.332 18.764,0.1875 26.791,-0.8085 l -0.7395,-25.279 z"
             fill="#ffffff" />
        </g>
        <path
           id="path2209"
           d="m 365.13,226.22 c -7.237,0.149 -13.458,6.391 -12.467,13.852 7.553,56.867 58.397,100.71 119.83,100.71 61.437,0 112.28,-43.839 119.83,-100.71 1.133,-8.527 -7.153,-15.46 -15.611,-13.527 -30.542,6.979 -66.163,11.008 -104.22,11.008 -38.06,0 -73.68,-4.028 -104.22,-11.008 -1.057,-0.242 -2.111,-0.345 -3.144,-0.324 z m 1.68,6.74 c 31.089,7.105 67.164,11.174 105.69,11.174 38.524,0 74.598,-4.069 105.69,-11.174 4.299,-0.982 8.136,2.365 7.621,6.244 -7.104,53.481 -54.999,94.99 -113.31,94.99 -58.31,0 -106.21,-41.509 -113.31,-94.99 -0.515,-3.879 3.321,-7.226 7.621,-6.244 z"
           fill="#000000" />
      </g>
      <g
         id="mouth_tongue_smaller">
        <path
           id="path2213"
           d="m 510.97,291.12 c -13.958,0 -31.241,4.239 -49.188,15.442 0,0 -19.608,-16.351 -41.876,-11.506 -12.961,2.725 -16.95,4.239 -19.276,8.781 62.149,15.746 99.373,12.112 138.92,-2.725 -4.653,-6.662 -10.967,-9.992 -28.249,-9.992 z"
           fill="#d40000" />
      </g>
    </g>
  </g>
</svg>
