<?xml version="1.0" encoding="utf-8"?>
<!-- Generator: Adobe Illustrator 23.0.3, SVG Export Plug-In . SVG Version: 6.00 Build 0)  -->
<svg version="1.1" id="Layer_1" xmlns="http://www.w3.org/2000/svg" xmlns:xlink="http://www.w3.org/1999/xlink" x="0px" y="0px"
	 viewBox="0 0 123.3 119" style="enable-background:new 0 0 123.3 119;" xml:space="preserve">
<style type="text/css">
	.st0{fill:url(#SVGID_1_);}
	.st1{fill:#008CE3;}
	.st2{fill:#242424;}
	.st3{fill:#018CE3;}
	.st4{fill:#020202;}
	.st5{fill:#FFFFFF;}
	.st6{opacity:0.5;fill:#6D4C41;stroke:#6D4C41;enable-background:new    ;}
	.st7{fill:url(#SVGID_2_);}
	.st8{fill:#5CC5FF;}
	.st9{fill:url(#SVGID_3_);}
	.st10{fill:#4AA8FF;}
	.st11{fill:url(#SVGID_4_);}
	.st12{fill:url(#SVGID_5_);}
</style>
<linearGradient id="SVGID_1_" gradientUnits="userSpaceOnUse" x1="-11260.1006" y1="-3398.8999" x2="-11260.1006" y2="-3311.0999" gradientTransform="matrix(-1 0 0 -1 -11200.2002 -3294)">
	<stop  offset="0" style="stop-color:#018CE3"/>
	<stop  offset="0.107" style="stop-color:#0C9BE4"/>
	<stop  offset="0.428" style="stop-color:#28C2E5"/>
	<stop  offset="0.683" style="stop-color:#3ADAE7"/>
	<stop  offset="0.841" style="stop-color:#40E3E7"/>
</linearGradient>
<path class="st0" d="M59.9,116.5c-15.4,0-29.7-5.1-40.3-14.4C8.1,91.9,2,77.6,2,60.7c0-16.8,6.1-31.1,17.6-41.3
	C30.1,10.1,44.4,4.9,59.9,4.9c27.9,0,57.9,17.5,57.9,55.8S87.8,116.5,59.9,116.5z"/>
<path class="st1" d="M59.9,7c15,0,28.8,4.9,38.9,13.8c11.1,9.7,16.9,23.6,16.9,40c0,16.5-5.9,30.3-16.9,40
	c-10.1,8.8-23.9,13.7-38.9,13.7s-28.8-4.9-38.9-13.9C9.9,90.8,4.1,77,4.1,60.7c0-16.2,5.9-30,16.9-39.8c10.2-9,24-14,38.9-14
	 M59.9,2.9C28.8,2.9,0,23.6,0,60.7c0,37.3,28.8,57.8,59.9,57.8s59.9-20,59.9-57.8C119.8,23.1,91,2.9,59.9,2.9z"/>
<path class="st2" d="M78.6,43.1c4.2,0,8,3.5,8,9.4s-3.8,9.4-8,9.4s-8-3.5-8-9.4S74.4,43.1,78.6,43.1z M41.1,43.1c-4.2,0-8,3.5-8,9.4
	s3.8,9.4,8,9.4s8-3.5,8-9.4S45.3,43.1,41.1,43.1z"/>
<path class="st3" d="M88.4,75.3c5.5,0,10,4.5,10,10V86c0,5.5-4.5,10-10,10H31.3c-5.5,0-10-4.5-10-10v-0.7c0-5.5,4.5-10,10-10H88.4z
	 M88.4,71.3H31.3c-7.7,0-14,6.3-14,14V86c0,7.7,6.3,14,14,14h57.1c7.7,0,14-6.3,14-14v-0.7C102.4,77.6,96.1,71.3,88.4,71.3z"/>
<g id="Layer_2">
	<path class="st4" d="M31.4,97.9c-6.6,0-12-5.4-12-12v-0.6c0-6.6,5.4-12,12-12h57.1c6.6,0,12,5.4,12,12V86c0,6.6-5.4,12-12,12
		L31.4,97.9L31.4,97.9z"/>
</g>
<g>
	<rect x="33.4" y="86.1" class="st5" width="12.8" height="11.9"/>
	<rect x="33.4" y="73.3" class="st5" width="12.8" height="11.8"/>
	<rect x="60.9" y="73.3" class="st5" width="12.8" height="11.8"/>
	<path class="st5" d="M88.4,85.1h12.1c-0.1-6.5-5.5-11.8-12-11.8h-0.1V85.1z"/>
	<rect x="47.2" y="73.3" class="st5" width="12.7" height="11.8"/>
	<rect x="47.2" y="86.1" class="st5" width="12.7" height="11.9"/>
	<rect x="74.7" y="86.1" class="st5" width="12.7" height="11.9"/>
	<path class="st5" d="M88.4,86.1V98h0.1c6.6,0,11.9-5.3,12-11.9H88.4z"/>
	<path class="st5" d="M32.4,98V86.1h-13c0.1,6.5,5.5,11.8,12,11.8V98H32.4z"/>
	<path class="st5" d="M32.4,85.1V73.3h-1c-6.5,0-11.9,5.3-12,11.8H32.4z"/>
	<rect x="60.9" y="86.1" class="st5" width="12.8" height="11.9"/>
	<rect x="74.7" y="73.3" class="st5" width="12.7" height="11.8"/>
</g>
<path class="st6" d="M47,26.3c0,0,0,0.3-0.1,0.8c0,0.1,0,0.2-0.1,0.4c0,0.2-0.1,0.4-0.1,0.6s-0.1,0.4-0.2,0.7
	c-0.1,0.2-0.2,0.4-0.2,0.7c-0.2,0.5-0.4,1-0.7,1.4c-0.3,0.5-0.6,1-1,1.5c-0.4,0.5-0.8,1-1.2,1.4c-0.5,0.5-1,0.9-1.5,1.3
	c-0.6,0.4-1.1,0.7-1.7,1s-1.2,0.6-1.7,0.8c-0.6,0.2-1.2,0.4-1.7,0.5c-0.6,0.1-1.1,0.2-1.6,0.2c-0.5,0.1-0.9,0.1-1.3,0
	c-0.4,0-0.7-0.1-1-0.1c-0.6-0.1-0.9-0.2-0.9-0.2c-1-0.2-1.5-1.2-1.3-2.2c0.2-0.6,0.6-1.1,1.2-1.3l0.3-0.1c0,0,0.2-0.1,0.6-0.2
	c0.2,0,0.4-0.1,0.7-0.2l0.9-0.3c0.3-0.1,0.7-0.3,1-0.4c0.4-0.1,0.7-0.4,1.1-0.5c0.4-0.2,0.8-0.4,1.1-0.7c0.4-0.2,0.7-0.5,1.1-0.8
	s0.7-0.5,1-0.8l0.9-0.9c0.3-0.3,0.6-0.6,0.8-0.9s0.5-0.6,0.7-0.9s0.4-0.5,0.5-0.7c0.1-0.1,0.1-0.2,0.2-0.3s0.1-0.2,0.2-0.3
	c0.2-0.4,0.4-0.7,0.4-0.7c0.5-0.9,1.6-1.1,2.5-0.6c0.6,0.3,0.9,1,0.9,1.6L47,26.3z M76.2,25.3c0,0,0.2,0.2,0.4,0.7
	c0.1,0.1,0.1,0.3,0.2,0.3s0.1,0.2,0.2,0.3c0.1,0.2,0.3,0.4,0.5,0.7s0.4,0.6,0.7,0.9c0.2,0.3,0.5,0.6,0.8,0.9l0.9,0.9
	c0.3,0.3,0.7,0.6,1,0.8c0.4,0.3,0.7,0.5,1.1,0.8c0.4,0.2,0.8,0.5,1.1,0.7c0.4,0.2,0.7,0.4,1.1,0.5s0.7,0.3,1,0.4l0.9,0.3
	c0.3,0.1,0.5,0.2,0.7,0.2c0.4,0.1,0.6,0.2,0.6,0.2l0.3,0.1c0.9,0.3,1.5,1.3,1.2,2.2c-0.2,0.6-0.7,1.1-1.3,1.2c0,0-0.3,0.1-0.9,0.2
	c-0.3,0.1-0.6,0.1-1,0.1h-1.3c-0.5,0-1-0.1-1.6-0.2s-1.1-0.3-1.7-0.5s-1.2-0.5-1.7-0.8c-0.6-0.3-1.1-0.7-1.7-1
	c-0.5-0.4-1-0.8-1.5-1.3c-0.5-0.4-0.9-1-1.2-1.4c-0.4-0.5-0.7-1-1-1.5s-0.5-1-0.7-1.4c-0.1-0.2-0.2-0.4-0.2-0.7
	c-0.1-0.2-0.1-0.5-0.2-0.7s-0.1-0.4-0.1-0.6s0-0.3-0.1-0.4c0-0.5-0.1-0.8-0.1-0.8c0-1,0.8-1.8,1.8-1.9c0.7,0,1.3,0.4,1.6,0.9
	L76.2,25.3z"/>
<linearGradient id="SVGID_2_" gradientUnits="userSpaceOnUse" x1="34.5158" y1="169.7023" x2="40.3668" y2="184.3293" gradientTransform="matrix(1 0 0 1 0 -164.6)">
	<stop  offset="0" style="stop-color:#FFFFFF"/>
	<stop  offset="0.215" style="stop-color:#F6FCFF"/>
	<stop  offset="0.565" style="stop-color:#DEF3FF"/>
	<stop  offset="1" style="stop-color:#B7E4FF"/>
</linearGradient>
<path class="st7" d="M5.6,41.5c-0.3,0-0.9,0-1.3-1.2c-1.6-5,0.9-12.2,3.2-15.8c2.1-3.3,3.7-3.8,7.1-4.8c0.7-0.2,1.5-0.5,2.3-0.7
	c2.9-1,5.6-4.2,8.5-7.6c2.6-3.1,5.2-6.2,8.2-8.1c2.2-1.4,5.2-2.1,9.1-2.1c3.5,0,7.2,0.5,10.4,1c1.1,0.2,2.2,0.3,3.2,0.5
	c0.9,0.1,2,0.2,3.5,0.2h5.6C72.3,2.9,79,3.6,80.3,9c0.5,1.9,0.4,3.4-0.4,4.3c-0.9,1.2-3,1.8-6.2,1.8c-2.3,0-4.8-0.3-6.9-0.6
	l-0.4-0.1c-0.6-0.1-1.3-0.1-2-0.1c-6.2,0-13.6,3.2-19,5.5l-1,0.4c-1.6,0.7-3.5,0.8-5.7,1c-4.9,0.3-11.1,0.7-17.6,7.8
	C11.2,39.9,7.1,41.5,5.6,41.5z"/>
<path class="st8" d="M42.6,2.8c3.4,0,7,0.5,10.1,1c1.1,0.2,2.2,0.3,3.2,0.5c1,0.1,2.1,0.2,3.7,0.2h5.6c8.7,0,12.6,1.4,13.4,5
	c0.2,0.8,0.5,2.3-0.1,3c-0.3,0.4-1.4,1.2-5,1.2c-2.2,0-4.7-0.3-6.7-0.6L66.4,13c-0.7-0.1-1.4-0.1-2.2-0.1c-6.5,0-14.1,3.3-19.6,5.6
	l-1,0.4c-1.4,0.6-3.2,0.7-5.2,0.8C33.5,20,26.7,20.4,19.8,28C10.3,38.4,6.7,39.8,5.7,40c0,0,0-0.1-0.1-0.2c-1.3-4,0.5-10.7,3-14.5
	c1.8-2.8,3-3.2,6.2-4.1c0.7-0.2,1.5-0.5,2.4-0.7c3.3-1.1,6.2-4.5,9.1-8c2.5-3,5-6,7.8-7.7c2-1.2,4.7-1.8,8.3-1.8 M42.4,0
	c-3.6,0-7.1,0.6-9.9,2.3C26,6.4,21.1,16.2,16.2,17.8S8.9,19.4,6,23.9c-2.6,4-5.1,11.6-3.3,17.1c0.5,1.5,1.4,2.3,2.7,2.3
	c3.3,0,9-4.7,16.6-13c8.9-9.8,17.1-5.9,22.8-8.4c5.2-2.2,13.1-5.8,19.4-5.8c0.6,0,1.2,0,1.8,0.1c2.2,0.3,4.9,0.6,7.5,0.6
	c5.1,0,9.7-1.5,8-8c-1.6-6.5-9.4-7.2-16.4-7.2c-2,0-3.9,0.1-5.6,0.1c-1.3,0-2.4,0-3.3-0.2C52.4,1,47.4,0,42.5,0L42.4,0z"/>
<linearGradient id="SVGID_3_" gradientUnits="userSpaceOnUse" x1="0.985" y1="224.6" x2="27.731" y2="224.6" gradientTransform="matrix(1 0 0 1 0 -164.6)">
	<stop  offset="0" style="stop-color:#FFFFFF"/>
	<stop  offset="0.215" style="stop-color:#F6FCFF"/>
	<stop  offset="0.565" style="stop-color:#DEF3FF"/>
	<stop  offset="1" style="stop-color:#B7E4FF"/>
</linearGradient>
<path class="st9" d="M16.6,74c-0.4,0-0.7-0.1-1-0.4l-1-1c-0.1-0.1-0.2-0.1-0.3-0.1s-0.2,0-0.3,0.1l-1,1c-0.3,0.3-0.6,0.4-1,0.4
	s-0.7-0.1-1-0.4l-0.9-0.9c-0.5-0.5-0.5-1.4,0-2l1.6-1.6c0.3-0.3,0.5-0.7,0.5-1.2v-4.4l-3.8,2.2c-0.4,0.2-0.6,0.6-0.8,1L7,68.9
	c-0.2,0.6-0.7,1-1.3,1c-0.1,0-0.2,0-0.4-0.1L4,69.5c-0.7-0.2-1.2-1-1-1.7l0.4-1.3c0-0.2-0.1-0.4-0.3-0.4l-1.5-0.4
	c-0.3-0.1-0.5-0.3-0.7-0.6S0.7,64.4,0.8,64l0.3-1.3c0.2-0.6,0.7-1,1.3-1c0.1,0,0.2,0,0.4,0.1L5,62.4h0.4c0.3,0,0.6-0.1,0.9-0.2
	l3.8-2.2l-3.8-2.2c-0.3-0.1-0.6-0.2-0.9-0.2H5l-2.2,0.6c-0.1,0-0.3,0.1-0.4,0.1c-0.6,0-1.2-0.4-1.3-1L0.8,56
	c-0.1-0.4-0.1-0.7,0.1-1.1s0.5-0.6,0.8-0.6l1-0.3l0.4-0.1c0.2-0.1,0.3-0.3,0.3-0.5L3,52.1c-0.2-0.7,0.3-1.5,1-1.7l1.3-0.3
	c0.1,0,0.2-0.1,0.4-0.1c0.6,0,1.2,0.4,1.3,1l0.6,2.2c0.1,0.4,0.4,0.8,0.8,1l3.8,2.2V52c0-0.4-0.2-0.8-0.5-1.2l-1.6-1.6
	c-0.5-0.5-0.5-1.4,0-1.9l0.9-0.9c0.3-0.3,0.6-0.4,1-0.4s0.7,0.1,1,0.4l1,1c0.1,0.1,0.2,0.1,0.3,0.1s0.2,0,0.3-0.1l1-1
	c0.3-0.3,0.6-0.4,1-0.4s0.7,0.1,1,0.4l0.9,0.9c0.5,0.5,0.5,1.4,0,1.9l-1.6,1.6c-0.3,0.3-0.5,0.7-0.5,1.2v4.3l3.8-2.2
	c0.4-0.2,0.6-0.6,0.8-1l0.5-2.1v-0.1l0.1-0.1c0.2-0.5,0.7-0.9,1.3-0.9c0.1,0,0.2,0,0.4,0.1l1.2,0.3h0.1l0.1,0.1
	c0.3,0.1,0.6,0.3,0.8,0.6s0.2,0.7,0.1,1.1l-0.3,1.3v0.1c0,0.2,0.1,0.4,0.3,0.4l1.3,0.4c0.7,0.2,1.2,1,1,1.7l-0.4,1.4
	c-0.2,0.5-0.7,0.9-1.3,0.9c-0.1,0-0.2,0-0.4-0.1l-2.2-0.6h-0.4c-0.3,0-0.6,0.1-0.9,0.2L18.5,60l3.8,2.2c0.3,0.1,0.6,0.2,0.9,0.2h0.4
	l2.1-0.6c0.1,0,0.2-0.1,0.4-0.1c0.6,0,1.2,0.4,1.3,1l0.4,1.3c0.2,0.8-0.2,1.5-1,1.7l-1.3,0.4c-0.1,0-0.2,0.1-0.2,0.2s-0.1,0.2,0,0.3
	l0.4,1.4c0.1,0.3,0,0.7-0.2,1s-0.5,0.6-0.8,0.6L23.4,70h-0.3c-0.6,0-1.2-0.4-1.3-1l-0.6-2.2c-0.1-0.4-0.4-0.8-0.8-1l-3.8-2.2V68
	c0,0.4,0.2,0.8,0.5,1.2l1.6,1.6c0.5,0.5,0.5,1.4,0,1.9l-0.9,0.9c-0.3,0.2-0.6,0.4-1,0.4H16.6z"/>
<path class="st10" d="M16.6,46.7c0.2,0,0.5,0.1,0.6,0.3l0.9,0.9c0.3,0.3,0.3,0.9,0,1.2l-1.6,1.6c-0.4,0.4-0.6,0.9-0.6,1.5v4.4
	c0,0.3,0.2,0.5,0.4,0.5c0.1,0,0.2,0,0.3-0.1l3.8-2.2c0.5-0.3,0.8-0.8,1-1.3l0.6-2.2c0.1-0.4,0.5-0.7,0.9-0.7h0.2l1.3,0.3
	c0.5,0.1,0.8,0.6,0.6,1.1l-0.4,1.3c-0.1,0.5,0.2,1,0.6,1.1l1.3,0.4c0.5,0.1,0.8,0.6,0.6,1.1l-0.3,1.3c-0.1,0.4-0.5,0.7-0.9,0.7h-0.2
	l-2.2-0.6c-0.2,0-0.3-0.1-0.5-0.1c-0.4,0-0.8,0.1-1.1,0.3l-3.8,2.2L17.8,60c-0.1,0.2,0,0.5,0.3,0.6l3.8,2.2c0.4,0.2,0.7,0.3,1.1,0.3
	c0.2,0,0.3,0,0.5-0.1l2.2-0.6h0.2c0.4,0,0.7,0.3,0.9,0.7l0.4,1.3c0.1,0.5-0.2,1-0.6,1.1l-1.3,0.4c-0.5,0.1-0.8,0.6-0.6,1.1l0.4,1.3
	c0.1,0.5-0.2,1-0.6,1.1l-1.3,0.3H23c-0.4,0-0.7-0.3-0.9-0.7l-0.6-2.1c-0.2-0.5-0.5-1-1-1.3l-3.8-2.2c-0.1-0.1-0.2-0.1-0.3-0.1
	c-0.3,0-0.4,0.2-0.4,0.5v4.4c0,0.6,0.3,1.1,0.6,1.5l1.6,1.6c0.3,0.3,0.3,0.9,0,1.2l-0.9,0.9c-0.2,0.2-0.4,0.3-0.6,0.3
	s-0.5-0.1-0.6-0.3l-1-1c-0.2-0.2-0.4-0.3-0.6-0.3s-0.5,0.1-0.6,0.3l-1,1c-0.2,0.2-0.4,0.3-0.6,0.3s-0.5-0.1-0.6-0.3l-0.9-0.9
	c-0.3-0.3-0.3-0.9,0-1.2l1.6-1.6c0.4-0.4,0.6-0.9,0.6-1.5v-4.4c0-0.3-0.2-0.5-0.4-0.5c-0.1,0-0.2,0-0.3,0.1l-3.8,2.2
	c-0.5,0.3-0.8,0.8-1,1.3l-0.6,2.2c-0.1,0.4-0.5,0.7-0.9,0.7H5.8l-1.3-0.3c-0.4-0.1-0.7-0.5-0.7-0.9c0-0.1,0-0.1,0.1-0.2l0.4-1.3
	c0.2-0.5-0.1-1-0.6-1.1l-1.3-0.4c-0.4-0.1-0.7-0.5-0.7-0.9c0-0.1,0-0.1,0.1-0.2l0.3-1.3c0.1-0.4,0.5-0.7,0.9-0.7h0.2l2.2,0.6
	c0.2,0,0.3,0.1,0.5,0.1c0.4,0,0.8-0.1,1.1-0.3l3.8-2.2l0.3-0.3c0.1-0.2,0-0.5-0.3-0.6L7,57.6c-0.4-0.2-0.7-0.3-1.1-0.3
	c-0.2,0-0.3,0-0.5,0.1L3.2,58H3c-0.4,0-0.7-0.3-0.9-0.6l-0.3-1.3c-0.1-0.5,0.2-1,0.6-1.1l1.3-0.4c0.5-0.1,0.8-0.6,0.6-1.1l-0.4-1.3
	c-0.1-0.5,0.2-1,0.6-1.1l1.3-0.3H6c0.4,0,0.7,0.3,0.9,0.7l0.6,2.2c0.2,0.5,0.5,1,1,1.3l3.8,2.2c0.1,0.1,0.2,0.1,0.3,0.1
	c0.3,0,0.4-0.2,0.4-0.5v-4.4c0-0.6-0.3-1.1-0.6-1.5l-1.6-1.6c-0.3-0.3-0.3-0.9,0-1.2l0.9-0.9c0.2-0.2,0.4-0.3,0.6-0.3
	s0.5,0.1,0.6,0.3l1,1c0.2,0.2,0.4,0.3,0.6,0.3s0.5-0.1,0.6-0.3l1-1c0.2-0.2,0.4-0.3,0.6-0.3 M16.7,45.9c-0.5,0-1,0.2-1.3,0.6
	l-0.9,0.9l-0.9-0.9c-0.4-0.4-0.8-0.6-1.3-0.6s-1,0.2-1.3,0.6l-0.9,0.9c-0.7,0.7-0.7,1.9,0,2.7l1.6,1.6c0.2,0.2,0.3,0.5,0.4,0.9v3.5
	l-3-1.8c-0.3-0.2-0.5-0.5-0.6-0.8l-0.6-2.1c-0.2-0.8-1-1.4-1.8-1.4c-0.2,0-0.3,0-0.5,0.1l-1.3,0.3c-0.5,0.1-0.9,0.4-1.1,0.9
	S2.9,52.2,3,52.7l0.3,1.2l-1.2,0.3c-1,0.3-1.6,1.3-1.3,2.3l0.3,1.3c0.2,0.8,1,1.4,1.8,1.4c0.2,0,0.3,0,0.5-0.1l2.2-0.6h0.3
	c0.2,0,0.4,0.1,0.6,0.2l3,1.8l-3,1.8c-0.2,0.1-0.4,0.2-0.6,0.2H5.6l-2.2-0.6c-0.2,0-0.3-0.1-0.5-0.1c-0.9,0-1.6,0.6-1.8,1.4
	l-0.3,1.3c-0.3,1,0.3,2,1.3,2.3l1.2,0.3L3,68.3c-0.1,0.5-0.1,1,0.2,1.4s0.7,0.7,1.1,0.9l1.3,0.3c0.2,0,0.3,0.1,0.5,0.1
	c0.9,0,1.6-0.6,1.8-1.4l0.6-2.2c0.1-0.3,0.3-0.6,0.6-0.7l3-1.8v3.5c0,0.3-0.2,0.6-0.4,0.8l-1.6,1.6c-0.7,0.7-0.7,1.9,0,2.7l1,0.9
	c0.4,0.3,0.8,0.5,1.3,0.5s1-0.2,1.3-0.6l0.9-0.9l0.9,0.9c0.4,0.4,0.8,0.6,1.3,0.6s1-0.2,1.3-0.6l0.9-0.9c0.7-0.7,0.7-1.9,0-2.7
	l-1.6-1.6c-0.2-0.2-0.3-0.5-0.4-0.8v-3.5l3,1.8c0.3,0.2,0.5,0.5,0.6,0.8l0.6,2.1c0.2,0.8,1,1.4,1.8,1.4c0.2,0,0.3,0,0.5-0.1l1.3-0.3
	c0.5-0.1,0.9-0.4,1.1-0.9s0.3-0.9,0.2-1.4L25.8,67l1.2-0.3c0.5-0.1,0.9-0.4,1.1-0.9s0.3-0.9,0.2-1.4l-0.4-1.3
	c-0.2-0.8-1-1.4-1.8-1.4c-0.2,0-0.3,0-0.5,0.1l-2.1,0.6h-0.3c-0.2,0-0.4-0.1-0.6-0.2l-3-1.8l3-1.8c0.2-0.1,0.4-0.2,0.6-0.2h0.3
	l2.1,0.6c0.2,0,0.3,0.1,0.5,0.1c0.9,0,1.6-0.6,1.8-1.4l0.3-1.3c0.1-0.5,0.1-1-0.2-1.4s-0.7-0.7-1.1-0.9l-1.2-0.3l0.3-1.2
	c0.1-0.5,0.1-1-0.2-1.4s-0.7-0.7-1.1-0.9L23.4,50c-0.1-0.1-0.3-0.1-0.5-0.1c-0.9,0-1.6,0.6-1.8,1.4l-0.6,2.2
	c-0.1,0.3-0.3,0.6-0.6,0.7l-3,1.8v-3.5c0-0.3,0.2-0.6,0.4-0.8l1.6-1.6c0.7-0.7,0.7-1.9,0-2.7L18,46.5C17.6,46.1,17.2,45.9,16.7,45.9
	L16.7,45.9z"/>
<linearGradient id="SVGID_4_" gradientUnits="userSpaceOnUse" x1="-38.954" y1="396.4753" x2="-20.226" y2="396.4753" gradientTransform="matrix(0.9478 -0.3189 0.3189 0.9478 -53.4213 -276.6557)">
	<stop  offset="0" style="stop-color:#FFFFFF"/>
	<stop  offset="0.215" style="stop-color:#F6FCFF"/>
	<stop  offset="0.565" style="stop-color:#DEF3FF"/>
	<stop  offset="1" style="stop-color:#B7E4FF"/>
</linearGradient>
<path class="st11" d="M46.3,118.4c-0.2,0-0.3,0-0.5-0.1l-0.8-0.4c-0.6-0.3-0.8-0.9-0.5-1.5l0.7-1.4c0.1-0.2,0.1-0.5,0-0.8l-0.9-2.6
	l-1.8,2.1c-0.2,0.2-0.2,0.5-0.2,0.7l0.1,1.5c0,0.3-0.1,0.6-0.3,0.8s-0.5,0.4-0.8,0.4l-0.9,0.1c-0.7,0-1.1-0.5-1.2-1l-0.1-0.9
	c0-0.1-0.1-0.1-0.1-0.1l-1,0.1c-0.7,0-1.1-0.5-1.2-1l-0.1-0.9c0-0.6,0.4-1.1,1-1.2l1.6-0.1c0.2,0,0.5-0.2,0.7-0.4l1.8-2.1l-2.7-0.5
	h-0.2c-0.2,0-0.4,0.1-0.6,0.2l-1.3,0.9c-0.2,0.1-0.4,0.2-0.6,0.2c-0.4,0-0.7-0.2-0.9-0.5l-0.5-0.8c-0.3-0.5-0.2-1.2,0.3-1.5l0.8-0.5
	c0.1,0,0.1-0.1,0-0.2l-0.5-0.8c-0.3-0.5-0.2-1.2,0.3-1.5l0.8-0.5c0.2-0.1,0.4-0.2,0.6-0.2c0.4,0,0.7,0.2,0.9,0.5l0.9,1.3
	c0.2,0.2,0.4,0.4,0.7,0.4l2.7,0.5l-0.9-2.6c-0.1-0.2-0.3-0.4-0.5-0.6l-1.4-0.7c-0.5-0.3-0.8-0.9-0.5-1.5l0.4-0.8
	c0.2-0.4,0.6-0.6,1-0.6c0.2,0,0.3,0,0.5,0.1l0.8,0.4c0.1,0,0.1,0,0.1-0.1l0.4-0.8c0.2-0.4,0.6-0.6,1-0.6c0.2,0,0.3,0,0.5,0.1
	l0.8,0.4c0.5,0.3,0.8,0.9,0.5,1.5l-0.7,1.4c-0.1,0.2-0.1,0.5,0,0.8l0.9,2.6l1.8-2.1c0.2-0.2,0.2-0.5,0.2-0.7l-0.1-1.5
	c0-0.3,0.1-0.6,0.3-0.8s0.5-0.4,0.8-0.4l0.9-0.1c0.7,0,1.1,0.5,1.2,1l0.1,0.9c0,0.1,0.1,0.1,0.1,0.1l1-0.1c0.7,0,1.1,0.5,1.2,1
	l0.1,0.9c0,0.6-0.4,1.1-1,1.2l-1.6,0.1c-0.2,0-0.5,0.2-0.7,0.4l-1.8,2.1l2.7,0.5h0.1c0.2,0,0.4-0.1,0.6-0.2l1.3-0.8
	c0.2-0.1,0.4-0.2,0.6-0.2c0.4,0,0.7,0.2,0.9,0.5l0.5,0.7c0.2,0.3,0.2,0.6,0.2,0.8s-0.2,0.5-0.5,0.7l-0.8,0.5c-0.1,0-0.1,0.1,0,0.2
	l0.5,0.8c0.2,0.3,0.2,0.5,0.2,0.8s-0.2,0.5-0.5,0.7l-0.8,0.5c-0.2,0.1-0.4,0.2-0.6,0.2c-0.4,0-0.7-0.2-0.9-0.5l-0.9-1.3
	c-0.2-0.2-0.4-0.4-0.6-0.4l-2.7-0.5l0.9,2.6c0.1,0.2,0.3,0.4,0.5,0.6l1.4,0.7c0.5,0.3,0.8,0.9,0.5,1.5l-0.4,0.8
	c-0.2,0.4-0.6,0.6-1,0.6c-0.2,0-0.3,0-0.5-0.1l-0.8-0.4c-0.1,0-0.1,0-0.1,0.1l-0.4,0.8C47.1,118.2,46.7,118.4,46.3,118.4z"/>
<path class="st10" d="M43.7,99.4c0.1,0,0.2,0,0.3,0.1l0.8,0.4c0.3,0.2,0.4,0.5,0.3,0.8l-0.7,1.4c-0.2,0.4-0.2,0.7-0.1,1.1l1,2.8
	c0.1,0.2,0.2,0.3,0.3,0.3s0.2-0.1,0.3-0.2l2-2.3c0.2-0.3,0.4-0.7,0.4-1.1l-0.1-1.6c0-0.3,0.2-0.6,0.6-0.6l0.9-0.1
	c0.3,0,0.6,0.3,0.6,0.6l0.1,0.9c0,0.3,0.3,0.6,0.6,0.6l0.9-0.1c0.3,0,0.6,0.3,0.6,0.6l0.1,0.9c0,0.3-0.2,0.6-0.6,0.6l-1.6,0.1
	c-0.4,0.1-0.7,0.2-1,0.5l-2,2.3c-0.1,0.1-0.1,0.2-0.1,0.3c0,0.2,0.1,0.3,0.3,0.3l3,0.6h0.2c0.3,0,0.6-0.1,0.9-0.2l1.3-0.9
	c0.1-0.1,0.2-0.1,0.3-0.1c0.2,0,0.4,0.1,0.5,0.3l0.5,0.7c0.2,0.3,0.1,0.7-0.2,0.8l-0.8,0.5c-0.3,0.2-0.4,0.6-0.2,0.8l0.5,0.8
	c0.2,0.3,0.1,0.7-0.2,0.8l-0.8,0.5c-0.1,0.1-0.2,0.1-0.3,0.1c-0.2,0-0.4-0.1-0.5-0.3l-0.9-1.3c-0.2-0.3-0.6-0.5-0.9-0.6l-3-0.6h-0.1
	c-0.3,0-0.4,0.2-0.3,0.5l1,2.9c0.1,0.4,0.4,0.7,0.7,0.8l1.4,0.7c0.3,0.2,0.4,0.5,0.3,0.8l-0.4,0.8c-0.1,0.2-0.3,0.3-0.5,0.3
	c-0.1,0-0.2,0-0.3-0.1l-0.8-0.4c-0.1,0-0.2-0.1-0.3-0.1c-0.2,0-0.4,0.1-0.5,0.3l-0.4,0.8c-0.1,0.2-0.3,0.3-0.5,0.3
	c-0.1,0-0.2,0-0.3-0.1l-0.8-0.4c-0.3-0.2-0.4-0.5-0.3-0.8l0.7-1.4c0.2-0.4,0.2-0.7,0.1-1.1l-1-2.9c-0.1-0.2-0.2-0.3-0.3-0.3
	s-0.2,0.1-0.3,0.2l-2,2.3c-0.2,0.3-0.4,0.7-0.4,1.1l0.1,1.6c0,0.3-0.2,0.6-0.6,0.6l-0.9,0.1c-0.3,0-0.6-0.3-0.6-0.6l-0.1-0.9
	c0-0.3-0.3-0.6-0.6-0.6l-0.9,0.1c-0.3,0-0.6-0.3-0.6-0.6l-0.1-0.9c0-0.3,0.2-0.6,0.6-0.6l1.6-0.1c0.4-0.1,0.7-0.2,1-0.5l2-2.3
	c0.1-0.1,0.1-0.2,0.1-0.3c0-0.2-0.1-0.3-0.3-0.3l-3-0.6h-0.2c-0.3,0-0.6,0.1-0.9,0.2l-1.3,0.9c-0.1,0.1-0.2,0.1-0.3,0.1
	c-0.2,0-0.4-0.1-0.5-0.3l-0.5-0.8c-0.2-0.3-0.1-0.7,0.2-0.8l0.8-0.5c0.3-0.2,0.4-0.6,0.2-0.8l-0.5-0.8c-0.2-0.3-0.1-0.7,0.2-0.8
	l0.8-0.5c0.1-0.1,0.2-0.1,0.3-0.1c0.2,0,0.4,0.1,0.5,0.3l0.9,1.3c0.2,0.3,0.6,0.5,0.9,0.6l3,0.6h0.1c0.3,0,0.4-0.2,0.3-0.5l-1-2.9
	c-0.1-0.4-0.4-0.7-0.7-0.8l-1.4-0.7c-0.3-0.2-0.4-0.5-0.3-0.8l0.4-0.8c0.1-0.2,0.3-0.3,0.5-0.3c0.1,0,0.2,0,0.3,0.1l0.8,0.4
	c0.1,0,0.2,0.1,0.3,0.1c0.2,0,0.4-0.1,0.5-0.3l0.4-0.8c0.1-0.2,0.3-0.3,0.5-0.3 M43.7,98.2c-0.6,0-1.2,0.3-1.4,0.9l-0.2,0.5
	l-0.5-0.2c-0.2-0.1-0.5-0.2-0.7-0.2c-0.6,0-1.2,0.3-1.4,0.9l-0.4,0.8c-0.4,0.8-0.1,1.8,0.7,2.2l1.4,0.7l0.3,0.3l0.6,1.8l-1.8-0.4
	c-0.1,0-0.3-0.1-0.4-0.3l-0.8-1.3c-0.3-0.5-0.8-0.7-1.3-0.7c-0.3,0-0.6,0.1-0.9,0.3l-0.8,0.5c-0.4,0.2-0.6,0.6-0.7,1s0,0.9,0.2,1.2
	l0.3,0.5l-0.5,0.3c-0.4,0.2-0.6,0.6-0.7,1s0,0.9,0.2,1.2l0.5,0.8c0.3,0.5,0.8,0.7,1.3,0.7c0.3,0,0.6-0.1,0.9-0.3l1.3-0.8
	c0.1-0.1,0.2-0.1,0.3-0.1h0.1l1.8,0.4l-1.2,1.4c-0.1,0.1-0.2,0.2-0.4,0.2l-1.5,0.1c-0.9,0.1-1.6,0.8-1.5,1.7l0.1,0.9
	c0.1,0.9,0.8,1.5,1.6,1.5h0.7v0.5c0.1,0.8,0.8,1.5,1.6,1.5h0.1l0.9-0.1c0.4,0,0.8-0.2,1.1-0.5s0.4-0.7,0.4-1.2l-0.1-1.5
	c0-0.1,0.1-0.3,0.1-0.4l1.2-1.4l0.6,1.8v0.4l-0.7,1.4c-0.4,0.8-0.1,1.8,0.7,2.2l0.8,0.4c0.2,0.1,0.5,0.2,0.7,0.2
	c0.6,0,1.2-0.3,1.4-0.9l0.2-0.5l0.5,0.2c0.2,0.1,0.5,0.2,0.7,0.2c0.6,0,1.2-0.3,1.4-0.9l0.4-0.8c0.4-0.8,0.1-1.8-0.7-2.2l-1.4-0.7
	l-0.3-0.3l-0.6-1.8l1.8,0.4c0.1,0,0.3,0.1,0.4,0.3l0.8,1.3c0.3,0.5,0.8,0.7,1.3,0.7c0.3,0,0.6-0.1,0.9-0.3l0.8-0.5
	c0.4-0.2,0.6-0.6,0.7-1s0-0.9-0.2-1.2l-0.3-0.5l0.5-0.3c0.7-0.5,0.9-1.5,0.5-2.2l-0.5-0.8c-0.3-0.4-0.8-0.7-1.3-0.7
	c-0.3,0-0.6,0.1-0.9,0.3l-1.3,0.8c-0.1,0.1-0.2,0.1-0.3,0.1h-0.1l-1.8-0.4l1.2-1.4c0.1-0.1,0.2-0.2,0.4-0.2l1.5-0.1
	c0.4,0,0.8-0.2,1.1-0.5s0.4-0.7,0.4-1.2l-0.1-0.9c-0.1-0.9-0.8-1.5-1.6-1.5h-0.7V101c-0.1-0.8-0.8-1.5-1.6-1.5h-0.1l-0.9,0.1
	c-0.9,0.1-1.6,0.8-1.5,1.7l0.1,1.5c0,0.1-0.1,0.3-0.1,0.4l-1.2,1.4l-0.6-1.7v-0.4l0.7-1.4c0.4-0.8,0.1-1.8-0.7-2.2l-0.8-0.4
	c-0.2-0.1-0.5-0.2-0.7-0.2V98.2z"/>
<linearGradient id="SVGID_5_" gradientUnits="userSpaceOnUse" x1="104.0701" y1="-42.8175" x2="134.9651" y2="-42.8175" gradientTransform="matrix(0.8612 0.5083 -0.5083 0.8612 -18.0782 11.2232)">
	<stop  offset="0" style="stop-color:#FFFFFF"/>
	<stop  offset="0.215" style="stop-color:#F6FCFF"/>
	<stop  offset="0.565" style="stop-color:#DEF3FF"/>
	<stop  offset="1" style="stop-color:#B7E4FF"/>
</linearGradient>
<path class="st12" d="M111.6,50.6c-0.1,0-0.3,0-0.4-0.1l-1.5-0.4c-0.8-0.2-1.3-1.1-1-1.9l0.7-2.5c0.1-0.5,0.1-1.1-0.2-1.6l-2.5-4.4
	c0-0.1-0.1-0.1-0.1-0.1l-0.1,0.1l-2.6,4.4c-0.2,0.5-0.3,1-0.2,1.5l0.7,2.5c0.2,0.8-0.3,1.6-1.1,1.8l-1.5,0.4c-0.1,0-0.3,0.1-0.4,0.1
	c-0.7,0-1.3-0.5-1.5-1.1l-0.4-1.5c-0.1-0.2-0.3-0.4-0.5-0.4h-0.1l-1.5,0.4c-0.1,0-0.3,0.1-0.4,0.1c-0.7,0-1.3-0.5-1.5-1.1l-0.4-1.5
	c-0.2-0.8,0.3-1.6,1.1-1.8l2.5-0.7c0.5-0.2,0.9-0.5,1.2-0.9l2.6-4.4c0.1-0.1,0.1-0.1,0.1-0.2h-0.1l-5.1-0.1c-0.5,0-1,0.2-1.4,0.6
	l-1.9,1.9c-0.3,0.2-0.6,0.4-1,0.4s-0.8-0.2-1.1-0.5l-1-1l-0.2-0.1v-0.1c-0.2-0.3-0.3-0.6-0.3-0.9c0-0.4,0.2-0.8,0.5-1.1l1.1-1.1
	c0.1-0.1,0.2-0.2,0.2-0.4s-0.1-0.3-0.2-0.4L91,33.4c-0.6-0.6-0.6-1.6,0-2.1l1.1-1.1c0.3-0.3,0.7-0.4,1.1-0.4s0.8,0.2,1.1,0.5
	l1.9,1.9c0.4,0.3,0.9,0.6,1.4,0.6l5.1,0.1l0.1,0.5v-0.6l-2.5-4.4c-0.3-0.4-0.7-0.8-1.2-1l-2.5-0.7c-0.8-0.2-1.3-1-1.1-1.8l0.4-1.4
	v-0.2c0.2-0.6,0.8-1,1.4-1c0.1,0,0.3,0,0.4,0.1l1.5,0.4h0.2c0.2,0,0.5-0.2,0.5-0.4l0.4-1.5c0.2-0.7,0.8-1.1,1.5-1.1
	c0.1,0,0.3,0,0.4,0.1l1.5,0.4c0.4,0.1,0.7,0.4,0.9,0.7s0.2,0.8,0.1,1.1l-0.7,2.5c-0.1,0.5-0.1,1.1,0.2,1.6l2.5,4.4
	c0,0.1,0.1,0.1,0.1,0.1l0.1-0.1l2.6-4.4c0.2-0.5,0.3-1,0.2-1.5l-0.7-2.5c-0.2-0.8,0.3-1.6,1.1-1.8l1.5-0.4c0.1,0,0.3-0.1,0.4-0.1
	c0.7,0,1.3,0.5,1.5,1.1l0.4,1.5c0.1,0.2,0.3,0.4,0.5,0.4h0.1l1.5-0.4c0.1,0,0.3-0.1,0.4-0.1c0.7,0,1.3,0.5,1.5,1.1l0.4,1.5
	c0.2,0.8-0.3,1.6-1.1,1.8l-2.5,0.7c-0.5,0.2-0.9,0.5-1.2,0.9l-2.6,4.3c-0.1,0.1-0.1,0.1-0.1,0.2h0.1L116,33c0.5,0,1-0.2,1.4-0.6
	l1.8-1.8c0.3-0.3,0.7-0.4,1.1-0.4s0.8,0.2,1.1,0.5l1.1,1.1c0.3,0.3,0.4,0.7,0.4,1.1s-0.2,0.8-0.5,1.1l-1.1,1.1
	c-0.2,0.2-0.2,0.6,0,0.8l1.1,1.1c0.3,0.3,0.4,0.7,0.4,1.1s-0.2,0.8-0.5,1.1l-1.1,1.1c-0.3,0.3-0.7,0.4-1.1,0.4s-0.8-0.2-1.1-0.5
	l-1.8-1.9c-0.4-0.3-0.9-0.6-1.4-0.6l-5.1-0.1l-0.1-0.5v0.6l2.5,4.4c0.3,0.4,0.7,0.8,1.2,0.9l2.5,0.7c0.8,0.2,1.3,1.1,1,1.9l-0.4,1.6
	c-0.2,0.6-0.8,1-1.4,1c-0.1,0-0.3,0-0.4-0.1l-1.5-0.4h-0.2c-0.2,0-0.5,0.2-0.5,0.4l-0.4,1.5v0.1l-0.1,0.1c-0.2,0.6-0.8,1-1.4,1
	L111.6,50.6z"/>
<path class="st10" d="M101.7,20.1h0.3l1.5,0.4c0.5,0.2,0.9,0.7,0.7,1.3l-0.7,2.5c-0.2,0.6-0.1,1.3,0.2,1.9l2.5,4.4
	c0.1,0.3,0.3,0.4,0.5,0.4s0.4-0.1,0.5-0.4l2.6-4.4c0.3-0.6,0.4-1.2,0.3-1.9l-0.7-2.5c-0.1-0.5,0.2-1.1,0.7-1.2l1.5-0.4h0.3
	c0.5,0,0.9,0.3,1,0.8l0.4,1.5c0.1,0.5,0.5,0.8,1,0.8h0.3l1.5-0.4h0.3c0.5,0,0.9,0.3,1,0.8l0.4,1.5c0.1,0.5-0.2,1.1-0.7,1.2l-2.5,0.7
	c-0.6,0.2-1.2,0.6-1.5,1.1l-2.6,4.4c-0.3,0.5-0.1,0.9,0.5,0.9l5.1,0.1c0.7,0,1.3-0.3,1.8-0.7l1.9-1.9c0.2-0.2,0.5-0.3,0.7-0.3
	s0.5,0.1,0.7,0.3l1.1,1.1c0.4,0.4,0.4,1.1,0,1.4l-1.1,1.1c-0.4,0.4-0.4,1,0,1.4l1.1,1.1c0.4,0.4,0.4,1.1,0,1.4l-1.1,1.1
	c-0.2,0.2-0.5,0.3-0.7,0.3s-0.5-0.1-0.7-0.3l-1.8-1.9c-0.5-0.4-1.1-0.7-1.7-0.7l-5.1-0.1h-0.1c-0.1,0-0.3,0-0.4,0.1
	c-0.2,0.2-0.3,0.5-0.1,0.8l2.5,4.4c0.4,0.6,0.9,1,1.5,1.2l2.5,0.7c0.5,0.2,0.9,0.7,0.7,1.3l-0.4,1.5c-0.1,0.5-0.5,0.7-1,0.7h-0.3
	l-1.5-0.4h-0.3c-0.5,0-0.9,0.3-1,0.8l-0.4,1.5c-0.1,0.5-0.5,0.7-1,0.7h-0.3l-1.5-0.4c-0.5-0.2-0.9-0.7-0.7-1.3l0.7-2.5
	c0.2-0.6,0.1-1.3-0.2-1.9l-2.5-4.4c-0.1-0.3-0.3-0.4-0.5-0.4s-0.4,0.1-0.5,0.4l-2.6,4.4c-0.3,0.6-0.4,1.2-0.3,1.9l0.7,2.6
	c0.1,0.5-0.2,1.1-0.7,1.2l-1.5,0.4h-0.3c-0.5,0-0.9-0.3-1-0.8l-0.4-1.5c-0.1-0.5-0.5-0.8-1-0.8H99l-1.5,0.4h-0.3
	c-0.5,0-0.9-0.3-1-0.8l-0.4-1.5c-0.1-0.5,0.2-1.1,0.7-1.2l2.5-0.7c0.6-0.2,1.2-0.6,1.5-1.1l2.6-4.4c0.3-0.5,0.1-0.9-0.5-0.9
	l-5.1-0.1c-0.7,0-1.3,0.3-1.8,0.7l-1.9,1.9c-0.2,0.2-0.5,0.3-0.7,0.3s-0.5-0.1-0.7-0.3l-1.1-1.1c-0.4-0.4-0.4-1.1,0-1.4l1.1-1.1
	c0.4-0.4,0.4-1,0-1.4l-1.1-1.1c-0.4-0.4-0.4-1.1,0-1.4l1.1-1.1c0.2-0.2,0.5-0.3,0.7-0.3s0.5,0.1,0.7,0.3l1.9,1.9
	c0.5,0.4,1.1,0.7,1.7,0.7l5.1,0.1h0.1c0.1,0,0.3,0,0.4-0.1c0.2-0.2,0.3-0.5,0.1-0.8l-2.5-4.4c-0.4-0.6-0.9-1-1.5-1.2l-2.5-0.7
	c-0.5-0.2-0.9-0.7-0.7-1.3l0.4-1.5c0.1-0.5,0.5-0.7,1-0.7h0.3l1.5,0.4h0.3c0.5,0,0.9-0.3,1-0.8l0.4-1.5
	C100.9,20.4,101.3,20.1,101.7,20.1 M101.8,19.1c-0.9,0-1.7,0.6-1.9,1.5l-0.4,1.5h-0.1l-1.5-0.4c-0.2-0.1-0.4-0.1-0.5-0.1
	c-0.9,0-1.7,0.6-1.9,1.5l-0.4,1.5c-0.3,1.1,0.3,2.2,1.4,2.4l2.5,0.7c0.4,0.1,0.7,0.4,1,0.8l2.2,3.9h-4.4c-0.4,0-0.8-0.2-1.1-0.5
	L94.9,30c-0.4-0.4-0.9-0.6-1.4-0.6s-1,0.2-1.4,0.6L91,31.1c-0.4,0.4-0.6,0.9-0.6,1.4s0.2,1,0.6,1.4l1.1,1.1v0.1L91,36.2
	c-0.8,0.8-0.8,2,0,2.8l1.1,1.1c0.4,0.4,0.9,0.6,1.4,0.6s1-0.2,1.4-0.6l1.8-1.8c0.3-0.3,0.7-0.4,1.1-0.5h4.4l-2.3,3.8
	c-0.2,0.3-0.6,0.6-1,0.7L96.4,43c-1.1,0.3-1.7,1.4-1.4,2.4l0.4,1.5c0.2,0.9,1,1.5,1.9,1.5c0.2,0,0.3,0,0.5-0.1l1.5-0.4h0.1l0.4,1.5
	c0.2,0.9,1,1.5,1.9,1.5c0.2,0,0.3,0,0.5-0.1l1.5-0.4c1.1-0.3,1.7-1.4,1.4-2.4l-0.7-2.5c-0.1-0.4,0-0.8,0.2-1.2l2.3-3.8l2.2,3.8
	c0.2,0.4,0.2,0.8,0.1,1.2l-0.7,2.5c-0.1,0.5-0.1,1,0.2,1.5s0.7,0.8,1.2,0.9l1.5,0.4c0.2,0.1,0.4,0.1,0.5,0.1c0.9,0,1.7-0.6,1.9-1.5
	l0.4-1.5h0.1l1.5,0.4c0.2,0.1,0.4,0.1,0.5,0.1c0.9,0,1.7-0.6,1.9-1.5l0.4-1.5c0.3-1-0.3-2.1-1.4-2.4l-2.5-0.7
	c-0.4-0.1-0.7-0.4-1-0.7l-2.2-3.9h4.4c0.4,0,0.8,0.2,1.1,0.5l1.8,1.9c0.4,0.4,0.9,0.6,1.4,0.6s1-0.2,1.4-0.6l1.1-1.1
	c0.8-0.8,0.8-2,0-2.8l-1.1-1.1V35l1.1-1.1c0.4-0.4,0.6-0.9,0.6-1.4s-0.2-1-0.6-1.4l-1.1-1.1c-0.4-0.4-0.9-0.6-1.4-0.6
	s-1,0.2-1.4,0.6l-1.8,1.8c-0.3,0.3-0.7,0.4-1.1,0.5h-4.4l2.2-3.8c0.2-0.3,0.6-0.6,1-0.7l2.5-0.7c1.1-0.3,1.7-1.4,1.4-2.4l-0.4-1.5
	c-0.2-0.9-1-1.5-1.9-1.5c-0.2,0-0.3,0-0.5,0.1l-1.5,0.4h-0.1l-0.4-1.5c-0.2-0.9-1-1.5-1.9-1.5c-0.2,0-0.3,0-0.5,0.1l-1.5,0.4
	c-1.1,0.3-1.7,1.4-1.4,2.4l0.7,2.5c0.1,0.4,0,0.8-0.2,1.2l-2.3,3.8l-2.2-3.8c-0.2-0.4-0.2-0.8-0.1-1.2l0.7-2.5
	c0.3-1.1-0.3-2.2-1.4-2.5l-1.5-0.4c-0.2,0-0.4-0.1-0.6-0.1H101.8z"/>
</svg>
