<!-- Add XML Data --><svg width="945" height="1167" viewBox="0 0 945 1167" fill="none"
	xmlns="http://www.w3.org/2000/svg">
	<g id="leg_left">
		<path id="leg_left_1" d="M453.98 1166.3C479.407 1166.3 500.02 1145.69 500.02 1120.26C500.02 1094.83 479.407 1074.22 453.98 1074.22C428.553 1074.22 407.94 1094.83 407.94 1120.26C407.94 1145.69 428.553 1166.3 453.98 1166.3Z" fill="black"/>
		<path id="leg_left_2" d="M408.11 1120.1L499.88 1120L473.29 730.6L436.55 731.5L408.11 1120.1Z" fill="black"/>
		<path id="leg_left_3" d="M455.04 748.79C465.263 748.79 473.55 740.503 473.55 730.28C473.55 720.057 465.263 711.77 455.04 711.77C444.817 711.77 436.53 720.057 436.53 730.28C436.53 740.503 444.817 748.79 455.04 748.79Z" fill="black"/>
	</g>
	<g id="leg_right">
		<path id="leg_right_1" d="M491.57 1166.1C516.997 1166.1 537.61 1145.49 537.61 1120.06C537.61 1094.63 516.997 1074.02 491.57 1074.02C466.143 1074.02 445.53 1094.63 445.53 1120.06C445.53 1145.49 466.143 1166.1 491.57 1166.1Z" fill="black"/>
		<path id="leg_right_2" d="M510.93 730.28L474.19 731.18L445.71 1119.78L537.48 1119.68L510.93 730.28Z" fill="black"/>
		<path id="leg_right_3" d="M492.68 748.59C502.903 748.59 511.19 740.303 511.19 730.08C511.19 719.857 502.903 711.57 492.68 711.57C482.457 711.57 474.17 719.857 474.17 730.08C474.17 740.303 482.457 748.59 492.68 748.59Z" fill="black"/>
	</g>
	<g id="body">
		<path id="body_1" d="M474.4 740.78C454.41 740.78 438.5 724.03 439.53 704.07L456.39 376.65H492.41L509.27 704.06C510.3 724.03 494.39 740.78 474.4 740.78Z" fill="black"/>
		<path id="body_2" d="M474.41 395.08C484.627 395.08 492.91 386.797 492.91 376.58C492.91 366.363 484.627 358.08 474.41 358.08C464.193 358.08 455.91 366.363 455.91 376.58C455.91 386.797 464.193 395.08 474.41 395.08Z" fill="black"/>
	</g>
	<g id="arm_left">
		<g id="upper_arm_left">
			<path id="upper_arm_left_1" d="M253.205 453.175C236.115 453.175 222.261 438.843 222.261 421.165C222.261 403.487 236.115 389.155 253.205 389.155C270.295 389.155 284.149 403.487 284.149 421.165C284.149 438.843 270.295 453.175 253.205 453.175Z" fill="black"/>
			<path id="upper_arm_left_2" d="M253.855 388.385V453.838L259.837 453.694L449.187 449.11V402.229L262.517 388.999L253.855 388.385Z" fill="black"/>
			<path id="upper_arm_left_3" d="M450.655 449.345C437.616 449.345 427.045 438.774 427.045 425.735C427.045 412.696 437.616 402.125 450.655 402.125C463.694 402.125 474.265 412.696 474.265 425.735C474.265 438.774 463.694 449.345 450.655 449.345Z" fill="black"/>
			<g id="lower_arm_left">
				<path id="lower_arm_left_1" d="M253.855 388.385L82.785 376.262L81.1151 458.022L253.855 453.838L253.855 388.385Z" fill="black"/>
  			<path id="lower_arm_left_2_pinky" d="M81.252 458.395C58.608 458.395 40.252 440.039 40.252 417.395C40.252 394.751 58.608 376.395 81.252 376.395C103.896 376.395 122.252 394.751 122.252 417.395C122.252 440.039 103.896 458.395 81.252 458.395Z" fill="black"/>      
        
				<g id="hand_left">

					<path id="left_3rd_shadow" d="M56.976 445.905L76.236 442.075C80.306 441.265 83.8259 438.915 86.1259 435.465C88.4359 432.015 89.256 427.865 88.446 423.795C86.806 415.545 78.726 410.045 70.446 411.525L70.1559 411.575L50.8959 415.405C42.4859 417.075 37.0059 425.285 38.6859 433.685C40.3259 441.935 48.4059 447.445 56.6859 445.955L56.976 445.905Z" fill="#F9F9F9"/>
					<path id="left_3rd" d="M71.276 416.885L52.016 420.715C46.546 421.805 42.9961 427.115 44.0861 432.585C45.1761 438.055 50.4861 441.605 55.9561 440.515L75.2161 436.685C80.6861 435.595 84.2361 430.285 83.1461 424.815C82.0561 419.345 76.736 415.805 71.276 416.885Z" fill="black"/>
					<path id="left_2nd_shadow" d="M51.076 427.235L70.706 426.875C74.856 426.795 78.7359 425.105 81.616 422.115C84.4961 419.125 86.0461 415.195 85.9661 411.035C85.8061 402.625 78.8361 395.775 70.4261 395.775H70.1361L50.5061 396.135C41.9361 396.295 35.0961 403.395 35.2461 411.965C35.4061 420.375 42.3761 427.225 50.7861 427.225L51.076 427.235Z" fill="#F9F9F9"/>
					<path id="left_2nd" d="M70.276 401.235L50.646 401.595C45.076 401.695 40.636 406.295 40.746 411.875C40.846 417.445 45.4461 421.885 51.026 421.775L70.656 421.415C76.226 421.315 80.666 416.715 80.556 411.135C80.456 405.565 75.856 401.125 70.276 401.235Z" fill="black"/>
					<path id="left_pointer_shadow" d="M27.781 404.285L63.491 403.885C71.034 403.805 78.093 401.965 83.328 398.715C88.563 395.465 91.373 391.185 91.239 386.675C90.955 377.525 78.277 370.085 62.972 370.085H62.437L26.727 370.485C11.139 370.655 -1.30602 378.385 -1.02102 387.695C-0.737019 396.845 11.941 404.285 27.246 404.285H27.781Z" fill="#F9F9F9"/>
					<path id="left_pointer" d="M62.571 376.015L26.861 376.415C16.725 376.525 8.66296 381.535 8.84696 387.585C9.03095 393.645 17.411 398.465 27.53 398.355L63.24 397.955C73.376 397.845 81.438 392.835 81.254 386.785C81.07 380.725 72.707 375.905 62.571 376.015Z" fill="black"/>
					<path id="left_thumb_shadow" d="M112.675 373.295L91.875 368.475C90.615 368.185 89.325 368.035 88.045 368.035C80.145 368.035 73.375 373.415 71.585 381.125C69.475 390.205 75.155 399.305 84.235 401.415L105.035 406.235C106.295 406.525 107.585 406.675 108.865 406.675L112.675 373.295Z" fill="#F9F9F9"/>
					<path id="left_thumb" d="M85.576 395.625L106.376 400.445C112.276 401.815 118.176 398.135 119.546 392.235C120.916 386.335 117.236 380.435 111.336 379.065L90.536 374.245C84.636 372.875 78.736 376.555 77.366 382.455C75.996 388.365 79.666 394.255 85.576 395.625Z" fill="black"/>
				</g>
			</g>
		</g>
	</g>
	<g id="arm_right">
		<g id="upper_arm_right">
			<path id="upper_arm_right_1" d="M691.06 453.175C708.15 453.175 722.004 438.843 722.004 421.165C722.004 403.487 708.15 389.155 691.06 389.155C673.97 389.155 660.116 403.487 660.116 421.165C660.116 438.843 673.97 453.175 691.06 453.175Z" fill="black"/>
			<path id="upper_arm_right_2" d="M690.41 388.385V453.838L684.428 453.694L495.078 449.11V402.229L681.748 388.999L690.41 388.385Z" fill="black"/>
			<path id="upper_arm_right_3" d="M493.61 449.345C506.649 449.345 517.22 438.774 517.22 425.735C517.22 412.696 506.649 402.125 493.61 402.125C480.571 402.125 470 412.696 470 425.735C470 438.774 480.571 449.345 493.61 449.345Z" fill="black"/>
			<g id="lower_arm_right">
				<path id="lower_arm_right_1" d="M690.41 388.385L861.48 376.262L863.15 458.022L690.41 453.838L690.41 388.385Z" fill="black"/>]
  					<path id="lower_arm_right_2_pinky" d="M863.013 458.395C885.657 458.395 904.013 440.039 904.013 417.395C904.013 394.751 885.657 376.395 863.013 376.395C840.369 376.395 822.013 394.751 822.013 417.395C822.013 440.039 840.369 458.395 863.013 458.395Z" fill="black"/>      
				<g id="hand_right">

					<path id="right_3rd_shadow" d="M887.289 445.905L868.029 442.075C863.959 441.265 860.439 438.915 858.139 435.465C855.829 432.015 855.009 427.865 855.819 423.795C857.459 415.545 865.539 410.045 873.819 411.525L874.109 411.575L893.369 415.405C901.779 417.075 907.259 425.285 905.579 433.685C903.939 441.935 895.859 447.445 887.579 445.955L887.289 445.905Z" fill="#F9F9F9"/>
					<path id="right_3rd" d="M872.989 416.885L892.249 420.715C897.719 421.805 901.269 427.115 900.179 432.585C899.089 438.055 893.779 441.605 888.309 440.515L869.049 436.685C863.579 435.595 860.029 430.285 861.119 424.815C862.209 419.345 867.529 415.805 872.989 416.885Z" fill="black"/>
					<path id="right_2nd_shadow" d="M893.189 427.235L873.559 426.875C869.409 426.795 865.529 425.105 862.649 422.115C859.769 419.125 858.219 415.195 858.299 411.035C858.459 402.625 865.429 395.775 873.839 395.775H874.129L893.759 396.135C902.329 396.295 909.169 403.395 909.019 411.965C908.859 420.375 901.889 427.225 893.479 427.225L893.189 427.235Z" fill="#F9F9F9"/>
					<path id="right_2nd" d="M873.989 401.235L893.619 401.595C899.189 401.695 903.629 406.295 903.519 411.875C903.419 417.445 898.819 421.885 893.239 421.775L873.609 421.415C868.039 421.315 863.599 416.715 863.709 411.135C863.809 405.565 868.409 401.125 873.989 401.235Z" fill="black"/>
					<path id="right_pointer_shadow" d="M916.484 404.285L880.774 403.885C873.231 403.805 866.172 401.965 860.937 398.715C855.702 395.465 852.892 391.185 853.026 386.675C853.31 377.525 865.988 370.085 881.293 370.085H881.828L917.538 370.485C933.126 370.655 945.571 378.385 945.286 387.695C945.002 396.845 932.324 404.285 917.019 404.285H916.484Z" fill="#F9F9F9"/>
					<path id="right_pointer" d="M881.694 376.015L917.404 376.415C927.54 376.525 935.602 381.535 935.418 387.585C935.234 393.645 926.854 398.465 916.735 398.355L881.025 397.955C870.889 397.845 862.827 392.835 863.011 386.785C863.195 380.725 871.558 375.905 881.694 376.015Z" fill="black"/>
					<path id="right_thumb_shadow" d="M831.59 373.295L852.39 368.475C853.65 368.185 854.94 368.035 856.22 368.035C864.12 368.035 870.89 373.415 872.68 381.125C874.79 390.205 869.11 399.305 860.03 401.415L839.23 406.235C837.97 406.525 836.68 406.675 835.4 406.675L831.59 373.295Z" fill="#F9F9F9"/>
					<path id="right_thumb" d="M858.689 395.625L837.889 400.445C831.989 401.815 826.089 398.135 824.719 392.235C823.349 386.335 827.029 380.435 832.929 379.065L853.729 374.245C859.629 372.875 865.529 376.555 866.899 382.455C868.269 388.365 864.599 394.255 858.689 395.625Z" fill="black"/>
				</g>
			</g>
		</g>
	</g>
	<g id="head_group">
  <g id="head">
			<path id="head_1" d="M601.44 61.5C565.773 25.833 522.707 8 472.24 8C421.773 8 378.707 25.833 343.04 61.5C307.373 97.167 289.54 140.233 289.54 190.7C289.54 241.167 307.373 284.233 343.04 319.9C378.707 355.567 421.773 373.4 472.24 373.4C522.707 373.4 565.773 355.567 601.44 319.9C637.107 284.233 654.94 241.167 654.94 190.7C654.94 140.233 637.107 97.167 601.44 61.5Z" fill="white"/>
			<path id="head_2" d="M654.94 190.7C654.94 241.167 637.107 284.233 601.44 319.9C565.773 355.567 522.707 373.4 472.24 373.4C421.773 373.4 378.707 355.567 343.04 319.9C307.373 284.233 289.54 241.167 289.54 190.7C289.54 140.233 307.373 97.167 343.04 61.5C378.707 25.833 421.773 8 472.24 8C522.707 8 565.773 25.833 601.44 61.5C637.107 97.167 654.94 140.233 654.94 190.7Z" stroke="black" stroke-width="16" stroke-linecap="round" stroke-linejoin="round"/>
		</g>
   <g id="eyes">
<path id="eye_left" d="M411 91.675C404.95 89.365 398.68 88.21 392.3 88.21C385.92 88.21 379.76 89.365 373.6 91.675C367.737 93.9115 362.16 97.1875 356.99 101.492C351.853 105.661 347.233 110.68 343.13 116.612C339.027 122.545 335.595 129.002 332.845 136.037C335.595 143.104 339.027 149.582 343.13 155.462C347.233 161.311 351.853 166.382 356.99 170.582C367.737 179.402 379.43 183.812 392.19 183.812C404.95 183.812 416.72 179.402 427.39 170.582C432.527 166.351 437.147 161.311 441.25 155.462C445.353 149.582 448.785 143.072 451.535 136.037C448.785 128.971 445.353 122.492 441.25 116.612C437.147 110.732 432.527 105.692 427.39 101.492C422.187 97.1875 416.643 93.9115 410.78 91.675H411ZM420.405 112.465C420.589 112.57 420.826 112.745 421.12 112.99C421.45 113.27 421.689 113.445 421.835 113.515H421.615C425.058 116.35 428.248 119.678 431.185 123.49C434.078 127.27 436.652 131.417 438.885 135.88C436.685 140.426 434.122 144.595 431.185 148.375C428.292 152.123 425.102 155.41 421.615 158.245C417.182 161.846 412.485 164.597 407.535 166.487C402.552 168.377 397.492 169.322 392.355 169.322C387.108 169.322 382.015 168.395 377.065 166.54C372.115 164.685 367.462 161.92 363.095 158.245C359.652 155.441 356.462 152.134 353.525 148.322C350.632 144.542 348.058 140.395 345.825 135.932C348.025 131.386 350.588 127.217 353.525 123.437C356.418 119.689 359.608 116.381 363.095 113.515C363.425 113.235 363.901 112.885 364.525 112.465C363.348 116.528 362.765 120.917 362.765 125.695C362.765 130.84 363.554 135.796 365.13 140.605C366.637 145.151 368.76 149.194 371.51 152.785C374.227 156.323 377.362 159.053 380.915 160.975C384.622 163.001 388.472 164.02 392.465 164.02C396.502 164.02 400.352 163.005 404.015 160.975C407.568 159.053 410.725 156.323 413.475 152.785C416.225 149.246 418.348 145.204 419.855 140.605C421.395 135.848 422.165 130.892 422.165 125.695C422.165 121.106 421.579 116.717 420.405 112.465ZM381.245 107.267C384.292 107.267 386.91 108.664 389.11 111.467C391.277 114.271 392.355 117.641 392.355 121.6C392.355 125.558 391.274 128.929 389.11 131.732C386.91 134.536 384.292 135.932 381.245 135.932C378.165 135.932 375.525 134.536 373.325 131.732C371.158 128.929 370.08 125.558 370.08 121.6C370.08 117.641 371.161 114.271 373.325 111.467C375.525 108.664 378.165 107.267 381.245 107.267Z" fill="black"/>
<path id="eye_right" d="M598 116.35C593.897 110.502 589.288 105.43 584.14 101.23C578.937 96.946 573.393 93.691 567.53 91.4545C561.469 89.134 555.21 87.979 548.94 87.979C542.67 87.979 536.4 89.134 530.35 91.4545C524.476 93.691 518.91 96.9565 513.74 101.23C508.614 105.43 503.994 110.46 499.88 116.35C495.777 122.23 492.345 128.74 489.595 135.775C492.345 142.852 495.777 149.32 499.88 155.2C503.983 161.049 508.592 166.12 513.74 170.32C524.509 179.151 536.29 183.55 549.05 183.55C561.81 183.55 573.58 179.14 584.36 170.32C589.486 166.109 594.106 161.08 598.22 155.2C602.323 149.32 605.755 142.81 608.505 135.775C605.755 128.698 602.323 122.23 598.22 116.35H598ZM578.31 113.389H578.078C581.532 116.203 584.733 119.532 587.681 123.364C590.585 127.134 593.137 131.281 595.359 135.754C593.159 140.29 590.607 144.448 587.681 148.249C584.777 152.008 581.576 155.316 578.078 158.161C573.645 161.763 568.959 164.503 563.998 166.372C559.015 168.262 553.955 169.207 548.818 169.207C543.571 169.207 538.489 168.282 533.528 166.435C528.545 164.566 523.892 161.805 519.558 158.161C516.104 155.347 512.903 152.029 509.966 148.207C507.062 144.427 504.499 140.279 502.277 135.817C504.477 131.281 507.04 127.123 509.966 123.322C512.87 119.563 516.06 116.255 519.558 113.41C519.868 113.111 520.331 112.763 520.955 112.365C519.789 116.397 519.217 120.776 519.217 125.49C519.217 130.656 519.998 135.612 521.56 140.295C523.067 144.863 525.19 148.916 527.929 152.475C530.679 156.003 533.825 158.744 537.367 160.676C541.052 162.681 544.891 163.689 548.917 163.689C552.932 163.689 556.782 162.683 560.467 160.676C564.02 158.744 567.166 156.014 569.905 152.475C572.655 148.947 574.778 144.894 576.274 140.295C577.836 135.56 578.617 130.604 578.617 125.49C578.617 120.912 578.037 116.534 576.879 112.365C577.034 112.464 577.266 112.638 577.575 112.887C577.884 113.136 578.116 113.31 578.271 113.41L578.31 113.389ZM537.72 107.121C540.8 107.121 543.418 108.517 545.596 111.321C547.774 114.124 548.852 117.505 548.852 121.453C548.852 125.412 547.765 128.793 545.596 131.586C543.418 134.379 540.8 135.785 537.72 135.785C534.651 135.785 532.022 134.389 529.844 131.586C527.666 128.793 526.588 125.412 526.588 121.453C526.588 117.505 527.674 114.124 529.844 111.321C532.022 108.528 534.651 107.121 537.72 107.121Z" fill="black"/>
</g> 
<g id="mouth" class="mouth">
 <g id="mouth_smaller">
   <g id="mouth_smaller_1" fill="#2b0000">
    <path id="mouth_smaller_2" d="m365.13 226.22c-7.237 0.149-13.458 6.391-12.467 13.852 7.553 56.867 58.397 100.71 119.83 100.71 61.437 0 112.28-43.839 119.83-100.71 1.133-8.527-7.153-15.46-15.611-13.527-30.542 6.979-66.163 11.008-104.22 11.008-38.06 0-73.68-4.028-104.22-11.008-1.057-0.242-2.111-0.345-3.144-0.324zm1.68 6.74c31.089 7.105 67.164 11.174 105.69 11.174 38.524 0 74.598-4.069 105.69-11.174 4.299-0.982 8.136 2.365 7.621 6.244-7.104 53.481-54.999 94.99-113.31 94.99-58.31 0-106.21-41.509-113.31-94.99-0.515-3.879 3.321-7.226 7.621-6.244z"/>
    <path id="mouth_smaller_3" d="m367.54 229.76c-6.379-1.458-12.44 3.683-11.616 9.886 7.328 55.174 56.698 97.847 116.57 97.847 59.873 0 109.24-42.673 116.57-97.847 0.824-6.203-5.237-11.343-11.616-9.886-30.816 7.042-66.663 11.09-104.95 11.09-38.292 0-74.14-4.048-104.96-11.09z"/>
   </g>
   <g id="mouth_teeth_smaller" opacity=".97792">
     <path id="mouth_teeth_smaller_1" d="m585.63 229.52c-4.207 1.292-15.581 0.772-21.214 2.709 0.512 4.196 1.3882 9.5875 2.1562 17.012 5.121-1.614 14.517-3.2538 20.405-4.8678zm-226.52-0.18925-1.6108 16.042c4.765 1.843 14.876 4.8785 19.08 6.4135l0.48425-20.834c-7.164-1.025-6.943 0.2145-17.954-1.6225zm204.12 2.9338c-5.995 1.328-17.122 2.5565-25.148 4.5485 0.73 4.318 0.6325 10.888 1.7265 18.527 7.298-1.661 17.116-3.7898 25.508-5.4508zm-184.66 0.0973-0.7905 20.516c6.203 1.993 15.885 3.8415 21.358 5.5015l0.208-21.282c-6.968-1.955-14.659-3.33-20.775-4.736zm158.04 5.167c-6.568 1.328-17.374 0.913-25.036 2.241 0.365 4.65 0.775 13.152 1.505 21.454 7.298-1.661 17.689-3.9772 25.352-5.6382zm-136.19-1.2168c0.365 5.979-0.01 13.347 0.355 22.314 7.663 1.993 18.794 5.154 25.726 6.15l0.30225-25.458c-8.392-1.329-19.45-1.6765-26.383-3.0055zm110.63 3.078c-7.297 1.328-20.068 1.5295-28.825 2.1935 0 4.982 0.553 15.562 0.918 24.529 8.392-0.997 19.982-2.7 28.374-4.693-0.687-7.474-1.3525-14.602-0.4665-22.03zm-82.87-0.346c0.365 6.31-0.47825 16.628-0.11425 26.26 7.663 1.328 18.241 1.8982 25.174 2.2302l-0.44825-25.372c-8.027-0.332-18.044-2.121-24.612-3.118zm51.272 1.2778c-3.284 0.332-6.568 0.332-10.217 0.664-5.108 0.332-10.414 0.1445-14.792 0.1445 0 5.647 0.0833 16.636 0.44825 25.935 8.392 0.332 18.764 0.1875 26.791-0.8085l-0.7395-25.279z" fill="#fff"/>
    <path id="mouth_teeth_smaller_2" d="m365.13 226.22c-7.237 0.149-13.458 6.391-12.467 13.852 7.553 56.867 58.397 100.71 119.83 100.71 61.437 0 112.28-43.839 119.83-100.71 1.133-8.527-7.153-15.46-15.611-13.527-30.542 6.979-66.163 11.008-104.22 11.008-38.06 0-73.68-4.028-104.22-11.008-1.057-0.242-2.111-0.345-3.144-0.324zm1.68 6.74c31.089 7.105 67.164 11.174 105.69 11.174 38.524 0 74.598-4.069 105.69-11.174 4.299-0.982 8.136 2.365 7.621 6.244-7.104 53.481-54.999 94.99-113.31 94.99-58.31 0-106.21-41.509-113.31-94.99-0.515-3.879 3.321-7.226 7.621-6.244z" fill="#000"/>
   </g>
   <g id="mouth_tongue_smaller">
    <path id="mouth_tongue_smaller_1" d="m510.97 291.12c-13.958 0-31.241 4.239-49.188 15.442 0 0-19.608-16.351-41.876-11.506-12.961 2.725-16.95 4.239-19.276 8.781 62.149 15.746 99.373 12.112 138.92-2.725-4.653-6.662-10.967-9.992-28.249-9.992z" fill="#d40000"/>
   </g>
  </g>
 
    </g>
	</g>
</svg>