<svg enable-background="new 0 0 448 480" viewBox="0 0 448 480" xmlns="http://www.w3.org/2000/svg"><path d="m282 282c-35-23-80-31-121-20-11 3-3 28 7 25 38-9 75 2 98 17 8 6 24-16 16-22zm83-162-1-1-2-1c-30-11-69-12-101-3l-2 1-1 1c-9 12-14 26-14 40 0 37 30 66 66 66 37 0 67-29 67-66 0-13-4-26-12-37zm-55 91c-29 0-54-24-54-54 0-10 3-20 8-28v3c0 17 13 31 30 31s30-14 30-31c0-3-1-7-2-10 12 1 24 3 35 7 5 8 8 18 8 28 0 30-25 54-55 54zm-106-54c0-13-4-26-11-37l-2-1-1-1c-31-11-69-12-102-3l-2 1-1 1c-9 12-14 26-14 40 0 37 30 66 67 66 36 0 66-29 66-66zm-66 54c-30 0-55-24-55-54 0-10 3-20 8-28v3c0 17 14 31 30 31 17 0 30-14 30-31 0-3-1-7-2-10 12 1 24 3 35 7 5 8 8 18 8 28 0 30-25 54-54 54zm86-211c-124 0-224 100-224 224 0 42 11 80 31 114-3 7-6 14-6 24v5c-2 17-3 42 19 73 14 20 36 33 64 38 9 2 19 2 30 2 18-1 30-1 37-14 6-10-1-17 4-23 15 3 30 5 45 5 124 0 224-100 224-224s-100-224-224-224zm-56 448c2 13-5 26-58 17-86-16-80-97-66-126 10-22 9-31 3-58-5-24 40-13 42 16 1 22-8 33 3 42 23 21 89 10 134 0 20-4 30 16 15 26s-33 15-59 16c-14 1 2 6-1 19-1 7-8 7-8 14 0 4 8 9 3 19-2 3-9 6-8 15zm56-20c-12 0-24-1-36-3 0-2-1-5-2-7-3-6 12-12 6-28 23-4 40-8 55-17 17-10 18-20 17-25-2-9-12-17-23-19-5-1-10-1-14 0-25 6-85 15-115 9-9-1-11-3-12-4-5-4-4-13-2-30 3-22-16-45-33-48h-1c-10-1-18 2-23 8-6 6-8 16-4 27 3 8 3 15 3 21-13-27-20-57-20-88 0-56 23-107 60-144h1c28-16 61-19 91-8 4 1 10-14 5-15-19-8-40-9-60-6 31-20 68-31 107-31 57 0 108 23 145 60-34-12-72-9-104 10-4 2 5 16 8 14 28-16 61-19 91-8 3 1 8-9 7-14 35 37 57 87 57 142 0 112-92 204-204 204z"/></svg>